<mxfile host="65bd71144e">
    <diagram id="6BhnsPxRWblH5gieQzBp" name="Page-1">
        <mxGraphModel dx="2016" dy="574" grid="1" gridSize="10" guides="1" tooltips="1" connect="1" arrows="1" fold="1" page="1" pageScale="1" pageWidth="850" pageHeight="1100" math="0" shadow="0">
            <root>
                <mxCell id="0"/>
                <mxCell id="1" parent="0"/>
                <mxCell id="71" value="" style="rounded=1;whiteSpace=wrap;html=1;shadow=0;glass=0;sketch=0;fontFamily=Helvetica;fontSize=15;fontColor=#000000;strokeColor=#000000;align=center;arcSize=9;fillColor=#E6E6E6;" vertex="1" parent="1">
                    <mxGeometry y="24" width="830" height="366" as="geometry"/>
                </mxCell>
                <mxCell id="68" value="" style="rounded=1;whiteSpace=wrap;html=1;shadow=0;sketch=1;fontSize=16;fontColor=#000000;strokeColor=#000000;align=center;glass=0;fillColor=#FFFFFF;" vertex="1" parent="1">
                    <mxGeometry x="10" y="214" width="290" height="150" as="geometry"/>
                </mxCell>
                <mxCell id="18" value="" style="rounded=1;whiteSpace=wrap;html=1;shadow=0;sketch=1;fontSize=16;fontColor=#000000;strokeColor=#000000;align=center;glass=0;fillColor=#FFFFFF;" vertex="1" parent="1">
                    <mxGeometry x="10" y="60" width="290" height="134" as="geometry"/>
                </mxCell>
                <mxCell id="20" value="" style="rounded=1;whiteSpace=wrap;html=1;shadow=0;sketch=1;fontSize=16;fontColor=#000000;strokeColor=#000000;align=center;glass=0;fillColor=#FFFFFF;" vertex="1" parent="1">
                    <mxGeometry x="490" y="74" width="330" height="290" as="geometry"/>
                </mxCell>
                <mxCell id="21" value="EVM Pallet" style="text;html=1;strokeColor=none;fillColor=none;align=center;verticalAlign=middle;whiteSpace=wrap;rounded=0;shadow=0;glass=0;sketch=1;fontSize=16;fontColor=#000000;fontFamily=Helvetica;fontStyle=1" vertex="1" parent="1">
                    <mxGeometry x="510" y="80" width="290" height="20" as="geometry"/>
                </mxCell>
                <mxCell id="23" value="" style="rounded=1;whiteSpace=wrap;html=1;shadow=0;glass=0;sketch=1;fontSize=16;fontColor=#000000;strokeColor=#000000;fillColor=none;align=center;arcSize=50;" vertex="1" parent="1">
                    <mxGeometry x="30" y="124" width="240" height="20" as="geometry"/>
                </mxCell>
                <mxCell id="24" value="32-byte Substrate Address" style="text;html=1;strokeColor=none;fillColor=none;align=center;verticalAlign=middle;whiteSpace=wrap;rounded=0;shadow=0;glass=0;sketch=1;fontSize=16;fontColor=#000000;fontFamily=Nunito;fontSource=https%3A%2F%2Ffonts.googleapis.com%2Fcss%3Ffamily%3DNunito;fontStyle=1" vertex="1" parent="1">
                    <mxGeometry x="25" y="94" width="250" height="20" as="geometry"/>
                </mxCell>
                <mxCell id="25" value="" style="rounded=1;whiteSpace=wrap;html=1;shadow=0;glass=0;sketch=1;fontSize=16;fontColor=#000000;strokeColor=#000000;fillColor=none;align=center;arcSize=50;" vertex="1" parent="1">
                    <mxGeometry x="525" y="194" width="265" height="20" as="geometry"/>
                </mxCell>
                <mxCell id="26" value="20-byte Ethereum Address" style="text;html=1;strokeColor=none;fillColor=none;align=center;verticalAlign=middle;whiteSpace=wrap;rounded=0;shadow=0;glass=0;sketch=1;fontSize=16;fontColor=#000000;fontFamily=Helvetica;fontStyle=1" vertex="1" parent="1">
                    <mxGeometry x="510" y="164" width="250" height="20" as="geometry"/>
                </mxCell>
                <mxCell id="28" value="&lt;font style=&quot;font-size: 14px&quot; color=&quot;#ff3399&quot;&gt;TRUNCATE&lt;/font&gt;" style="text;html=1;strokeColor=none;fillColor=none;align=center;verticalAlign=middle;whiteSpace=wrap;rounded=0;shadow=0;glass=0;sketch=1;fontSize=16;fontColor=#000000;fontFamily=Helvetica;fontStyle=1;rotation=17;" vertex="1" parent="1">
                    <mxGeometry x="300" y="134" width="170" height="20" as="geometry"/>
                </mxCell>
                <mxCell id="30" value="Balance in Balances Pallet" style="text;html=1;strokeColor=none;fillColor=none;align=center;verticalAlign=middle;whiteSpace=wrap;rounded=0;shadow=0;glass=0;sketch=1;fontSize=16;fontColor=#000000;fontFamily=Helvetica;fontStyle=0" vertex="1" parent="1">
                    <mxGeometry x="523" y="219" width="200" height="20" as="geometry"/>
                </mxCell>
                <mxCell id="32" value="&lt;font face=&quot;Nunito&quot; data-font-src=&quot;https://fonts.googleapis.com/css?family=Nunito&quot;&gt;1000&lt;/font&gt;" style="rounded=0;whiteSpace=wrap;html=1;shadow=0;glass=0;sketch=1;fontSize=16;fontColor=#000000;strokeColor=#000000;fillColor=none;align=center;" vertex="1" parent="1">
                    <mxGeometry x="730" y="219" width="65" height="20" as="geometry"/>
                </mxCell>
                <mxCell id="39" style="edgeStyle=orthogonalEdgeStyle;rounded=0;sketch=1;orthogonalLoop=1;jettySize=auto;html=1;exitX=0;exitY=0.5;exitDx=0;exitDy=0;entryX=1;entryY=0.5;entryDx=0;entryDy=0;fontSize=16;fontColor=#000000;strokeColor=#FF3399;strokeWidth=3;" edge="1" parent="1" source="35" target="37">
                    <mxGeometry relative="1" as="geometry"/>
                </mxCell>
                <mxCell id="35" value="HASHING" style="shape=process;whiteSpace=wrap;html=1;backgroundOutline=1;shadow=0;glass=0;sketch=1;fontSize=16;fontColor=#000000;strokeColor=#000000;fillColor=none;align=center;fontFamily=Helvetica;" vertex="1" parent="1">
                    <mxGeometry x="328.5" y="225" width="134" height="60" as="geometry"/>
                </mxCell>
                <mxCell id="45" style="edgeStyle=orthogonalEdgeStyle;rounded=0;sketch=1;orthogonalLoop=1;jettySize=auto;html=1;fontSize=16;fontColor=#000000;strokeColor=#FF3399;strokeWidth=1;startArrow=classicThin;startFill=1;dashed=1;" edge="1" parent="1">
                    <mxGeometry relative="1" as="geometry">
                        <mxPoint x="270" y="235" as="sourcePoint"/>
                        <mxPoint x="270" y="154" as="targetPoint"/>
                    </mxGeometry>
                </mxCell>
                <mxCell id="37" value="" style="rounded=1;whiteSpace=wrap;html=1;shadow=0;glass=0;sketch=1;fontSize=16;fontColor=#000000;strokeColor=#000000;fillColor=none;align=center;arcSize=50;" vertex="1" parent="1">
                    <mxGeometry x="30" y="279" width="240" height="20" as="geometry"/>
                </mxCell>
                <mxCell id="38" value="32-byte substrate EVM address" style="text;html=1;strokeColor=none;fillColor=none;align=center;verticalAlign=middle;whiteSpace=wrap;rounded=0;shadow=0;glass=0;sketch=1;fontSize=16;fontColor=#000000;fontFamily=Nunito;fontSource=https%3A%2F%2Ffonts.googleapis.com%2Fcss%3Ffamily%3DNunito;fontStyle=1" vertex="1" parent="1">
                    <mxGeometry x="20" y="253" width="250" height="20" as="geometry"/>
                </mxCell>
                <mxCell id="40" value="&lt;font face=&quot;Nunito&quot; data-font-src=&quot;https://fonts.googleapis.com/css?family=Nunito&quot;&gt;1000&lt;/font&gt;" style="rounded=0;whiteSpace=wrap;html=1;shadow=0;glass=0;sketch=1;fontSize=16;fontColor=#000000;strokeColor=#000000;fillColor=none;align=center;" vertex="1" parent="1">
                    <mxGeometry x="200" y="309" width="65" height="20" as="geometry"/>
                </mxCell>
                <mxCell id="41" value="&lt;font face=&quot;Nunito&quot; data-font-src=&quot;https://fonts.googleapis.com/css?family=Nunito&quot;&gt;5000&lt;/font&gt;" style="rounded=0;whiteSpace=wrap;html=1;shadow=0;glass=0;sketch=1;fontSize=16;fontColor=#000000;strokeColor=#000000;fillColor=none;align=center;" vertex="1" parent="1">
                    <mxGeometry x="185" y="154" width="65" height="20" as="geometry"/>
                </mxCell>
                <mxCell id="42" value="&lt;font face=&quot;Nunito&quot; data-font-src=&quot;https://fonts.googleapis.com/css?family=Nunito&quot;&gt;Substrate Balance&lt;/font&gt;" style="rounded=0;whiteSpace=wrap;html=1;shadow=0;glass=0;sketch=1;fontSize=16;fillColor=none;align=center;strokeColor=none;fontColor=#000000;" vertex="1" parent="1">
                    <mxGeometry x="25" y="154" width="150" height="20" as="geometry"/>
                </mxCell>
                <mxCell id="46" value="&lt;font face=&quot;Nunito&quot; data-font-src=&quot;https://fonts.googleapis.com/css?family=Nunito&quot; style=&quot;font-size: 12px&quot;&gt;no relationship&lt;/font&gt;" style="rounded=0;whiteSpace=wrap;html=1;shadow=0;glass=0;sketch=1;fontSize=16;fillColor=none;align=center;strokeColor=none;fontColor=#000000;rotation=-90;" vertex="1" parent="1">
                    <mxGeometry x="234" y="184" width="100" height="20" as="geometry"/>
                </mxCell>
                <mxCell id="47" value="&lt;font face=&quot;Helvetica&quot;&gt;KUSARI build with SUBSTRATE&lt;/font&gt;" style="text;html=1;strokeColor=none;fillColor=none;align=center;verticalAlign=middle;whiteSpace=wrap;rounded=0;shadow=0;glass=0;sketch=1;fontSize=16;fontColor=#000000;fontFamily=Nunito;fontSource=https%3A%2F%2Ffonts.googleapis.com%2Fcss%3Ffamily%3DNunito;fontStyle=1" vertex="1" parent="1">
                    <mxGeometry x="15" y="30" width="280" height="20" as="geometry"/>
                </mxCell>
                <mxCell id="52" value="&lt;font face=&quot;Nunito&quot; data-font-src=&quot;https://fonts.googleapis.com/css?family=Nunito&quot; style=&quot;font-size: 14px&quot;&gt;Balances Pallet managed balance&lt;/font&gt;" style="rounded=0;whiteSpace=wrap;html=1;shadow=0;glass=0;sketch=1;fontSize=15;fillColor=none;align=left;strokeColor=none;fontColor=#000000;" vertex="1" parent="1">
                    <mxGeometry x="30" y="309" width="150" height="20" as="geometry"/>
                </mxCell>
                <mxCell id="63" value="Substrate Account" style="text;html=1;strokeColor=none;fillColor=none;align=center;verticalAlign=middle;whiteSpace=wrap;rounded=0;shadow=0;glass=0;sketch=1;fontFamily=Helvetica;fontSize=16;fontColor=#000000;fontStyle=1" vertex="1" parent="1">
                    <mxGeometry x="-80" y="124" width="70" height="20" as="geometry"/>
                </mxCell>
                <mxCell id="64" value="Eth Wallet" style="text;html=1;strokeColor=none;fillColor=none;align=center;verticalAlign=middle;whiteSpace=wrap;rounded=0;shadow=0;glass=0;sketch=1;fontFamily=Helvetica;fontSize=16;fontColor=#000000;fontStyle=1" vertex="1" parent="1">
                    <mxGeometry x="830" y="194" width="70" height="20" as="geometry"/>
                </mxCell>
                <mxCell id="65" value="" style="endArrow=classic;html=1;fontFamily=Helvetica;fontSize=16;fontColor=#000000;strokeColor=#FF3399;strokeWidth=3;exitX=1;exitY=0.5;exitDx=0;exitDy=0;entryX=0;entryY=0.25;entryDx=0;entryDy=0;" edge="1" parent="1" source="23" target="25">
                    <mxGeometry width="50" height="50" relative="1" as="geometry">
                        <mxPoint x="340" y="264" as="sourcePoint"/>
                        <mxPoint x="390" y="214" as="targetPoint"/>
                    </mxGeometry>
                </mxCell>
                <mxCell id="66" value="" style="endArrow=classic;html=1;fontFamily=Helvetica;fontSize=16;fontColor=#000000;strokeColor=#FF3399;strokeWidth=3;exitX=0;exitY=0.75;exitDx=0;exitDy=0;entryX=1;entryY=0.483;entryDx=0;entryDy=0;entryPerimeter=0;" edge="1" parent="1" source="25" target="35">
                    <mxGeometry width="50" height="50" relative="1" as="geometry">
                        <mxPoint x="290" y="354" as="sourcePoint"/>
                        <mxPoint x="510" y="409" as="targetPoint"/>
                    </mxGeometry>
                </mxCell>
                <mxCell id="67" value="&lt;div&gt;&lt;span style=&quot;font-size: 12px ; font-weight: normal ; color: rgb(255 , 51 , 153)&quot;&gt;Convert 20-byte address to 32-byte via hash function to manage balances of eth&amp;nbsp; address&lt;/span&gt;&lt;/div&gt;" style="text;html=1;strokeColor=none;fillColor=none;align=center;verticalAlign=middle;whiteSpace=wrap;rounded=0;shadow=0;glass=0;sketch=1;fontSize=16;fontColor=#000000;fontFamily=Helvetica;fontStyle=1;rotation=0;" vertex="1" parent="1">
                    <mxGeometry x="330" y="289" width="130" height="90" as="geometry"/>
                </mxCell>
                <mxCell id="69" value="&lt;font face=&quot;Helvetica&quot;&gt;BALANCES PALLET&lt;/font&gt;" style="text;html=1;strokeColor=none;fillColor=none;align=center;verticalAlign=middle;whiteSpace=wrap;rounded=0;shadow=0;glass=0;sketch=1;fontSize=16;fontColor=#000000;fontFamily=Nunito;fontSource=https%3A%2F%2Ffonts.googleapis.com%2Fcss%3Ffamily%3DNunito;fontStyle=1" vertex="1" parent="1">
                    <mxGeometry x="60" y="219" width="190" height="20" as="geometry"/>
                </mxCell>
                <mxCell id="70" value="&lt;font face=&quot;Nunito&quot; data-font-src=&quot;https://fonts.googleapis.com/css?family=Nunito&quot; style=&quot;font-size: 12px&quot;&gt;This ethereum address represents the subtrate account but it's balance is managed within the balances pallet on a 32-byte address.&lt;/font&gt;" style="rounded=0;whiteSpace=wrap;html=1;shadow=0;glass=0;sketch=1;fontSize=16;fillColor=none;align=left;strokeColor=none;fontColor=#000000;" vertex="1" parent="1">
                    <mxGeometry x="525" y="289" width="265" height="20" as="geometry"/>
                </mxCell>
            </root>
        </mxGraphModel>
    </diagram>
</mxfile>